<svg xmlns="http://www.w3.org/2000/svg" xmlns:xlink="http://www.w3.org/1999/xlink" version="1.1" id="Layer_1" x="0px" y="0px" viewBox="0 0 300 80" style="enable-background:new 0 0 300 80;" xml:space="preserve">
<style type="text/css">
	.st0{fill:#3f85ca;}
	.st1{fill:#52B56B;}
</style>
<g>
	<path class="st0" d="M41.32,66.79V53.88c0-0.97-0.05-2.04-1.43-2.04c-0.46,0-12.22,1.39-12.22,4.67c0,2.08,2.36,1.57,2.78,3.19   c0.51,1.71,0.42,8.42-0.19,10.04c-0.56,1.43-2.45,1.53-2.45,3.19c0,1.11,0.32,2.92,8.28,2.92c2.08,0,7.96,0,7.96-3.15   C44.05,70.26,41.32,72.25,41.32,66.79z"/>
	<path class="st0" d="M59.23,70.17c-0.23-0.74-0.19-2.27-0.19-3.1v-8.98c0-6.62,0.6-11.71,0.6-12.77c0-1.39-0.37-2.41-1.94-2.41   c-0.65,0-12.68,0.97-12.68,5c0,2.64,2.73,1.43,3.42,4.86c0.42,2.08,0.32,5.55,0.32,7.36c0,2.27,0,8.05-0.6,9.95   c-0.56,1.71-2.55,1.11-2.55,2.73c0,3.29,6.48,3.05,8.56,3.05c1.99,0,7.64,0.23,7.64-2.87C61.82,71.05,59.74,71.83,59.23,70.17z"/>
	<path class="st0" d="M77,70.17c-0.23-0.74-0.19-2.27-0.19-3.1v-8.98c0-6.62,0.6-11.71,0.6-12.77c0-1.39-0.37-2.41-1.94-2.41   c-0.65,0-12.68,0.97-12.68,5c0,2.64,2.73,1.43,3.42,4.86c0.42,2.08,0.32,5.55,0.32,7.36c0,2.27,0,8.05-0.6,9.95   c-0.56,1.71-2.55,1.11-2.55,2.73c0,3.29,6.48,3.05,8.56,3.05c1.99,0,7.64,0.23,7.64-2.87C79.6,71.05,77.51,71.83,77,70.17z"/>
	<path class="st0" d="M109.12,68.13v-9.3c0-1.48,0.09-2.92,0.09-4.4c0-1.62-0.69-2.59-2.36-2.59c-1.76,0-11.06,0.46-11.06,3.19   c0,1.94,2.27,1.16,2.64,3.47c0.23,1.48,0.19,3.47,0.19,5c0,2.22,0.46,6.57-2.87,6.57c-2.5,0-2.64-2.87-2.64-4.72V53.6   c0-1.16-0.14-1.76-1.43-1.76c-0.37,0-12.03,0.14-12.03,3.1c0,3.05,3.19-0.05,3.19,7.03c0,6.94-0.74,13.88,8.05,13.88   c2.04,0,3.52-0.69,4.63-1.39c1.11-0.69,1.85-1.39,2.36-1.39c1.85,0-0.51,2.78,3.05,2.78c2.55,0,10.74-0.88,10.74-4.03   C111.67,69.61,109.12,70.91,109.12,68.13z"/>
	<path class="st0" d="M156.84,58.78c0-4.54-2.73-6.94-7.13-6.94c-2.36,0-4.21,1.02-5.6,2.04c-1.34,1.06-2.18,2.08-2.55,2.08   c-0.97,0-1.02-4.12-6.53-4.12c-2.73,0-4.58,1.02-5.88,2.04c-1.3,1.06-2.04,2.08-2.5,2.08c-0.97,0-0.79-1.57-0.79-2.13   c0-0.97-0.09-1.99-1.25-1.99c-0.09,0-11.57,1.3-11.57,4.72c0,1.2,0.65,1.16,1.25,1.67c0.46,0.42,1.06,1.25,1.06,4.21v4.26   c0,5.79-2.78,4.67-2.78,6.76c0,2.45,5.46,2.41,7.27,2.41c6.34,0,7.41-1.62,7.41-2.82c0-1.67-1.25-1.39-1.25-5.65v-3.75   c0-1.71-0.23-4.86,2.36-4.86c2.64,0,2.41,4.17,2.41,5.83v2.64c0.14,5.51-2.18,3.56-2.22,6.02c-0.05,1.3,0.32,2.59,7.31,2.59   c1.67,0,7.22-0.05,7.22-2.92c0-1.71-1.67-0.74-1.67-6.43v-2.87c0-1.71-0.23-4.86,2.36-4.86c2.64,0,2.41,3.89,2.41,5.83v4.17   c0,2.68-1.62,2.64-1.62,4.35c0,2.41,5.37,2.73,6.9,2.73c1.8,0,7.08-0.14,7.08-3.05c0-1.34-1.71-1.57-1.71-4.26V58.78z"/>
	<path class="st0" d="M173.18,66.79V53.88c0-0.97-0.05-2.04-1.43-2.04c-0.46,0-12.22,1.39-12.22,4.67c0,2.08,2.36,1.57,2.78,3.19   c0.51,1.71,0.42,8.42-0.19,10.04c-0.56,1.43-2.45,1.53-2.45,3.19c0,1.11,0.32,2.92,8.28,2.92c2.08,0,7.96,0,7.96-3.15   C175.91,70.26,173.18,72.25,173.18,66.79z"/>
	<path class="st0" d="M203.26,67.53V45.41c0-1.53-0.32-2.5-1.71-2.5c-0.14,0-11.94,0.88-11.94,4.3c0,2.5,3.38,0.97,3.38,3.84   c0,0.51-0.05,2.04-0.74,2.04c-0.51,0-2.31-1.39-5.51-1.39c-6.39,0-11.39,6.02-11.39,12.17c0,5.69,4.72,12.13,10.78,12.13   c2.04,0,3.47-0.69,4.54-1.34c1.06-0.69,1.76-1.34,2.18-1.34c1.53,0-0.14,2.55,2.22,2.55c0.51,0,10.64-0.23,10.64-3.75   C205.71,69.71,203.26,70.77,203.26,67.53z M190.12,70.21c-2.87,0-3.42-3.8-3.42-5.97s0.56-7.5,3.66-7.5c2.68,0,2.68,3.93,2.68,5.74   C193.03,64.52,193.22,70.21,190.12,70.21z"/>
	<path class="st0" d="M218.12,51.7c-6.94,0-13.01,5.18-13.01,12.31c0,5.97,4.3,11.99,12.64,11.99c4.17,0,10.69-2.59,10.69-6.16   c0-0.88-0.83-2.31-1.81-2.31c-0.97,0-2.68,2.08-6.16,2.08c-2.18,0-5.18-1.94-5.18-4.26c0-0.79,0.74-0.65,1.25-0.65h10.04   c1.48,0,2.87-0.42,2.87-3.47C229.45,57.76,225.98,51.7,218.12,51.7z M217.84,60.26c-1.2,0-2.78,0.37-2.78-1.3   c0-1.48,1.25-3.05,2.78-3.05c1.71,0,2.73,1.3,2.73,2.96S219.09,60.26,217.84,60.26z"/>
	<path class="st0" d="M241.12,57.95c0-0.88,0.83-1.57,1.67-1.57c2.04,0,3.52,3.66,6.16,3.66c1.2,0,2.27-0.93,2.27-2.18   c0-1.9-2.13-6.16-4.26-6.16c-0.42,0-0.83,0.14-1.25,0.28c-0.42,0.19-0.79,0.32-1.25,0.32c-0.32,0-1.06-0.19-1.9-0.32   c-0.88-0.19-1.85-0.28-2.78-0.28c-4.77,0-8.56,2.92-8.56,7.54c0,7.64,9.07,7.96,9.07,10.69c0,1.02-0.88,1.48-1.81,1.48   c-2.59,0-4.44-4.58-6.48-4.58c-1.34,0-1.76,0.97-1.76,2.18c0,1.76,1.16,4.4,2.31,5.69c0.65,0.74,1.11,0.88,2.04,0.88   c0.32,0,0.6-0.05,0.88-0.09c0.32-0.05,0.6-0.09,0.93-0.09c0.28,0,1.3,0.14,2.45,0.28c1.16,0.19,2.5,0.32,3.42,0.32   c4.81,0,9.03-3.01,9.03-7.36C251.3,61.47,241.12,60.91,241.12,57.95z"/>
	<path class="st0" d="M282.49,68.18c-0.88-1.06-6.29-7.73-6.29-8.89c0-0.56,1.8-1.48,2.27-1.71c2.78-1.71,4.49-0.74,4.49-2.82   c0-2.87-5.04-2.92-6.94-2.92c-1.62,0-6.34,0.14-6.34,2.55c0,0.93,0.93,1.3,0.93,1.94c0,0.69-2.96,2.27-3.7,2.27   c-1.11,0-1.11-1.16-1.02-4.12l0.23-9.81c0.05-1.02-0.05-1.76-1.3-1.76c-2.45,0-12.91,2.27-12.91,5.37c0,2.64,3.56,0.14,3.56,3.89   v6.62c0,2.04-0.23,6.43-0.37,9.67c-0.14,3.89-2.59,2.27-2.59,4.49c0,3.05,4.3,2.92,8.1,2.92c7.22,0,7.54-1.9,7.54-3.19   c0-2.18-2.04-0.79-1.9-4.91c0-0.28-0.05-1.3,0.46-1.3c0.46,0,1.57,1.57,1.76,1.85l4.3,5.51c1.11,1.43,1.34,1.53,3.19,1.53h6.53   c3.56,0,4.63-1.25,4.63-2.68C287.12,70.72,284.58,70.77,282.49,68.18z"/>
	<circle class="st0" cx="36.06" cy="45.44" r="5.32"/>
	<circle class="st1" cx="168.63" cy="45.44" r="5.32"/>
</g>
<g>
	<g>
		<g>
			<circle class="st1" cx="140.4" cy="17.46" r="14.46"/>
			<circle class="st1" cx="156.98" cy="34.04" r="7.15"/>
		</g>
	</g>
</g>
</svg>